<svg width="18" height="18" viewBox="0 0 18 18" fill="none" xmlns="http://www.w3.org/2000/svg">
<path d="M17.0887 8.08516L9.51823 1.07203C9.51479 1.07203 9.51211 1.06916 9.51211 1.06591L9.49373 1.04754C9.48761 1.04141 9.47536 1.03529 9.46923 1.02916C9.4633 1.0215 9.4545 1.0171 9.44473 1.01691C9.43861 1.01079 9.42636 1.00466 9.42023 0.998536C9.41411 0.99241 9.40186 0.99241 9.39573 0.986285C9.38961 0.980161 9.37736 0.980161 9.36511 0.974035C9.35898 0.96791 9.34673 0.96791 9.34061 0.961786C9.32836 0.955659 9.32223 0.955661 9.30998 0.949537C9.30386 0.949537 9.29161 0.94341 9.28548 0.94341C9.27323 0.94341 9.26711 0.937286 9.25486 0.937286C9.24873 0.937286 9.23648 0.931161 9.23036 0.931161C9.21811 0.931161 9.20586 0.925035 9.19361 0.925035L9.03436 0.925035C9.02211 0.925035 9.00986 0.931161 8.99761 0.931161C8.99148 0.931161 8.97923 0.937286 8.97311 0.937286C8.96086 0.937286 8.95473 0.94341 8.94248 0.94341C8.93636 0.94341 8.92411 0.949537 8.91798 0.949537C8.90573 0.955661 8.89961 0.955659 8.88736 0.961786C8.88123 0.96791 8.86898 0.96791 8.86286 0.974035C8.85061 0.980161 8.84448 0.980161 8.83223 0.986285C8.82611 0.99241 8.81386 0.99241 8.80773 0.998536C8.80161 1.00466 8.78936 1.01079 8.78323 1.01691C8.77711 1.02303 8.77098 1.02303 8.75873 1.02916C8.75261 1.03529 8.74036 1.04141 8.73423 1.04754L8.71586 1.06591C8.71241 1.06591 8.70973 1.06878 8.70973 1.07203L1.13923 8.08516C0.881984 8.30509 0.851933 8.69173 1.07186 8.94879C1.29159 9.20584 1.67823 9.23608 1.93548 9.01616L8.50148 2.86666L8.50148 16.7337C8.50148 17.0721 8.77558 17.3462 9.11398 17.3462C9.45239 17.3462 9.72648 17.0721 9.72648 16.7337L9.72648 2.86666L16.2925 9.01616C16.5497 9.23609 16.9364 9.20584 17.1561 8.94879C17.376 8.69173 17.346 8.30509 17.0887 8.08516Z" fill="black"/>
</svg>
